<svg version="1.1" viewBox="0.0 0.0 960.0 720.0" fill="none" stroke="none" stroke-linecap="square" stroke-miterlimit="10" xmlns:xlink="http://www.w3.org/1999/xlink" xmlns="http://www.w3.org/2000/svg"><clipPath id="p.0"><path d="m0 0l960.0 0l0 720.0l-960.0 0l0 -720.0z" clip-rule="nonzero"/></clipPath><g clip-path="url(#p.0)"><path fill="#000000" fill-opacity="0.0" d="m0 0l960.0 0l0 720.0l-960.0 0z" fill-rule="evenodd"/><path fill="#000000" fill-opacity="0.0" d="m480.0 677.8268l0 -635.65356" fill-rule="evenodd"/><path stroke="#000000" stroke-width="2.0" stroke-linejoin="round" stroke-linecap="butt" d="m480.0 665.8268l0 -611.65356" fill-rule="evenodd"/><path fill="#000000" stroke="#000000" stroke-width="2.0" stroke-linecap="butt" d="m476.69653 665.8268l3.3034668 9.076172l3.3034668 -9.076172z" fill-rule="evenodd"/><path fill="#000000" stroke="#000000" stroke-width="2.0" stroke-linecap="butt" d="m483.30347 54.17323l-3.3034668 -9.076195l-3.3034668 9.076195z" fill-rule="evenodd"/><path fill="#000000" fill-opacity="0.0" d="m39.559055 360.0l880.88184 0" fill-rule="evenodd"/><path stroke="#000000" stroke-width="2.0" stroke-linejoin="round" stroke-linecap="butt" d="m51.559055 360.0l856.88184 0" fill-rule="evenodd"/><path fill="#000000" stroke="#000000" stroke-width="2.0" stroke-linecap="butt" d="m51.559055 356.69653l-9.076195 3.3034668l9.076195 3.3034668z" fill-rule="evenodd"/><path fill="#000000" stroke="#000000" stroke-width="2.0" stroke-linecap="butt" d="m908.4409 363.30347l9.076233 -3.3034668l-9.076233 -3.3034668z" fill-rule="evenodd"/><path fill="#000000" fill-opacity="0.0" d="m112.480316 84.44095c19.262466 85.90025 65.85695 491.1929 115.5748 515.4016c49.717865 24.20868 110.628174 -314.4449 182.7323 -370.1496c72.104095 -55.704727 173.8836 60.650467 249.8924 35.92125c76.00873 -24.729218 171.80005 -153.58047 206.1601 -184.29657" fill-rule="evenodd"/><path stroke="#0000ff" stroke-width="3.0" stroke-linejoin="round" stroke-linecap="butt" d="m116.03035 102.087395l0.37606812 2.0317078c1.4115295 7.6930084 2.9239044 16.462631 4.531227 26.13784c3.2146454 19.350418 6.809082 42.323227 10.736015 67.55032c7.8538513 50.454178 17.037704 109.92543 27.173294 167.46883c20.271149 115.08676 44.349243 222.46207 69.20816 234.56644c49.717865 24.20868 110.628174 -314.4449 182.7323 -370.1496c72.104126 -55.704727 173.88367 60.650497 249.8924 35.92125c38.004395 -12.364624 80.95441 -50.759735 118.6983 -89.90321c18.871948 -19.571747 36.442444 -39.330566 51.44232 -56.11622c7.5 -8.39283 14.357361 -16.04235 20.413513 -22.553558c0.75701904 -0.8139038 1.5014648 -1.6100082 2.2331543 -2.3875732l0.6085205 -0.6445694" fill-rule="evenodd"/><path fill="#0000ff" stroke="#0000ff" stroke-width="3.0" stroke-linecap="butt" d="m120.888214 101.110115l-7.5429306 -12.369606l-2.1728058 14.324173z" fill-rule="evenodd"/><path fill="#0000ff" stroke="#0000ff" stroke-width="3.0" stroke-linecap="butt" d="m857.5694 97.522896l6.1604614 -13.113037l-13.148071 6.0853043z" fill-rule="evenodd"/></g></svg>