<svg version="1.1" viewBox="0.0 0.0 960.0 720.0" fill="none" stroke="none" stroke-linecap="square" stroke-miterlimit="10" xmlns:xlink="http://www.w3.org/1999/xlink" xmlns="http://www.w3.org/2000/svg"><clipPath id="p.0"><path d="m0 0l960.0 0l0 720.0l-960.0 0l0 -720.0z" clip-rule="nonzero"/></clipPath><g clip-path="url(#p.0)"><path fill="#000000" fill-opacity="0.0" d="m0 0l960.0 0l0 720.0l-960.0 0z" fill-rule="evenodd"/><path fill="#000000" fill-opacity="0.0" d="m480.0 677.8268l0 -635.65356" fill-rule="evenodd"/><path stroke="#000000" stroke-width="2.0" stroke-linejoin="round" stroke-linecap="butt" d="m480.0 665.8268l0 -611.65356" fill-rule="evenodd"/><path fill="#000000" stroke="#000000" stroke-width="2.0" stroke-linecap="butt" d="m476.69653 665.8268l3.3034668 9.076172l3.3034668 -9.076172z" fill-rule="evenodd"/><path fill="#000000" stroke="#000000" stroke-width="2.0" stroke-linecap="butt" d="m483.30347 54.17323l-3.3034668 -9.076195l-3.3034668 9.076195z" fill-rule="evenodd"/><path fill="#000000" fill-opacity="0.0" d="m39.559055 360.0l880.88184 0" fill-rule="evenodd"/><path stroke="#000000" stroke-width="2.0" stroke-linejoin="round" stroke-linecap="butt" d="m51.559055 360.0l856.88184 0" fill-rule="evenodd"/><path fill="#000000" stroke="#000000" stroke-width="2.0" stroke-linecap="butt" d="m51.559055 356.69653l-9.076195 3.3034668l9.076195 3.3034668z" fill-rule="evenodd"/><path fill="#000000" stroke="#000000" stroke-width="2.0" stroke-linecap="butt" d="m908.4409 363.30347l9.076233 -3.3034668l-9.076233 -3.3034668z" fill-rule="evenodd"/><path fill="#000000" fill-opacity="0.0" d="m0 0l314.96063 0l0 42.015747l-314.96063 0z" fill-rule="evenodd"/><path fill="#000000" fill-opacity="0.0" d="m132.78477 556.11285c17.179794 -52.321075 61.43045 -290.4991 103.078735 -313.9265c41.6483 -23.427383 111.93001 149.41426 146.81102 173.3622c34.881012 23.947937 36.704742 -68.980316 62.475067 -29.67453c25.770355 39.305756 49.45758 302.99298 92.14697 265.50916c42.689453 -37.483765 127.28699 -412.32104 163.9895 -490.41205c36.702576 -78.09099 41.127747 36.44313 56.22577 21.866135c15.097961 -14.576981 28.635132 -91.10673 34.362183 -109.32808" fill-rule="evenodd"/><path stroke="#0000ff" stroke-width="4.0" stroke-linejoin="round" stroke-linecap="butt" d="m139.29895 533.0138l0.055664062 -0.21478271c0.3554077 -1.3778687 0.7166443 -2.7904663 1.0835724 -4.236145c2.9354858 -11.565735 6.2359924 -25.253021 9.843582 -40.27948c7.215149 -30.052917 15.6586 -65.46234 24.866684 -99.9689c18.416183 -69.01309 39.890915 -134.41443 60.715057 -146.12813c41.6483 -23.427399 111.93001 149.41423 146.81102 173.3622c34.881042 23.947968 36.704742 -68.980316 62.475067 -29.67453c25.770355 39.305756 49.45755 302.99304 92.14697 265.50916c42.689453 -37.483765 127.28699 -412.32108 163.9895 -490.41205c36.702515 -78.09099 41.127747 36.44313 56.22577 21.866135c7.549011 -7.2884827 14.707825 -30.06517 20.69519 -53.29741c1.4968872 -5.808052 2.9205322 -11.644577 4.258789 -17.274689c0.66900635 -2.8150635 1.3168335 -5.5785217 1.9416504 -8.261002l1.6721802 -7.204956" fill-rule="evenodd"/><path fill="#0000ff" stroke="#0000ff" stroke-width="4.0" stroke-linecap="butt" d="m132.94005 531.2205l1.4319153 19.264221l11.285889 -15.677612z" fill-rule="evenodd"/><path fill="#0000ff" stroke="#0000ff" stroke-width="4.0" stroke-linecap="butt" d="m792.49115 98.39433l-2.0289307 -19.210526l-10.794067 16.020271z" fill-rule="evenodd"/></g></svg>