<svg version="1.1" viewBox="0.0 0.0 960.0 720.0" fill="none" stroke="none" stroke-linecap="square" stroke-miterlimit="10" xmlns:xlink="http://www.w3.org/1999/xlink" xmlns="http://www.w3.org/2000/svg"><clipPath id="p.0"><path d="m0 0l960.0 0l0 720.0l-960.0 0l0 -720.0z" clip-rule="nonzero"/></clipPath><g clip-path="url(#p.0)"><path fill="#000000" fill-opacity="0.0" d="m0 0l960.0 0l0 720.0l-960.0 0z" fill-rule="evenodd"/><path fill="#000000" fill-opacity="0.0" d="m480.0 677.8268l0 -635.65356" fill-rule="evenodd"/><path stroke="#000000" stroke-width="2.0" stroke-linejoin="round" stroke-linecap="butt" d="m480.0 665.8268l0 -611.65356" fill-rule="evenodd"/><path fill="#000000" stroke="#000000" stroke-width="2.0" stroke-linecap="butt" d="m476.69653 665.8268l3.3034668 9.076172l3.3034668 -9.076172z" fill-rule="evenodd"/><path fill="#000000" stroke="#000000" stroke-width="2.0" stroke-linecap="butt" d="m483.30347 54.17323l-3.3034668 -9.076195l-3.3034668 9.076195z" fill-rule="evenodd"/><path fill="#000000" fill-opacity="0.0" d="m39.559055 360.0l880.88184 0" fill-rule="evenodd"/><path stroke="#000000" stroke-width="2.0" stroke-linejoin="round" stroke-linecap="butt" d="m51.559055 360.0l856.88184 0" fill-rule="evenodd"/><path fill="#000000" stroke="#000000" stroke-width="2.0" stroke-linecap="butt" d="m51.559055 356.69653l-9.076195 3.3034668l9.076195 3.3034668z" fill-rule="evenodd"/><path fill="#000000" stroke="#000000" stroke-width="2.0" stroke-linecap="butt" d="m908.4409 363.30347l9.076233 -3.3034668l-9.076233 -3.3034668z" fill-rule="evenodd"/><path fill="#000000" fill-opacity="0.0" d="m119.490814 622.0866c3.9046326 -12.755005 8.069992 -51.02057 23.427826 -76.53015c15.357819 -25.509644 57.26596 -63.77298 68.71916 -76.52759" fill-rule="evenodd"/><path stroke="#ff0000" stroke-width="4.0" stroke-linejoin="round" stroke-linecap="butt" d="m124.64456 598.6465l0.46705627 -2.170105c0.18502045 -0.848938 0.3746338 -1.7076416 0.5691681 -2.5749512c0.38907623 -1.7344971 0.79784393 -3.5032349 1.2289886 -5.296936c3.4491425 -14.349426 8.329956 -30.293213 16.008865 -43.048035c15.357819 -25.509644 57.265976 -63.77298 68.71916 -76.52759" fill-rule="evenodd"/><path fill="#ff0000" stroke="#ff0000" stroke-width="4.0" stroke-linecap="butt" d="m118.19176 597.2277l2.5547714 19.147705l10.350822 -16.31018z" fill-rule="evenodd"/><path fill="#000000" fill-opacity="0.0" d="m818.808 622.0875c-3.904663 -12.755005 -8.070007 -51.020508 -23.427795 -76.53015c-15.357849 -25.509644 -57.26599 -63.77298 -68.71918 -76.52756" fill-rule="evenodd"/><path stroke="#ff0000" stroke-width="4.0" stroke-linejoin="round" stroke-linecap="butt" d="m813.6543 598.64746l-0.46710205 -2.170166c-0.18499756 -0.848938 -0.3746338 -1.7076416 -0.56915283 -2.5748901c-0.3890381 -1.7344971 -0.79785156 -3.503296 -1.2290039 -5.296997c-3.4491577 -14.349487 -8.329956 -30.293213 -16.00885 -43.048035c-15.357849 -25.509644 -57.26599 -63.77298 -68.71918 -76.52756" fill-rule="evenodd"/><path fill="#ff0000" stroke="#ff0000" stroke-width="4.0" stroke-linecap="butt" d="m807.2015 600.0662l10.35083 16.31012l2.5547485 -19.147644z" fill-rule="evenodd"/><path fill="#000000" fill-opacity="0.0" d="m818.8084 82.879265c-3.904663 12.755028 -8.070007 51.02056 -23.427856 76.53019c-15.357788 25.509613 -57.26593 63.772964 -68.71912 76.52756" fill-rule="evenodd"/><path stroke="#0000ff" stroke-width="4.0" stroke-linejoin="round" stroke-linecap="butt" d="m813.65466 106.31938l-0.46710205 2.1701126c-0.18493652 0.8489685 -0.37457275 1.7076645 -0.56915283 2.574913c-0.38897705 1.73452 -0.7977905 3.5032883 -1.2289429 5.296974c-3.4491577 14.349464 -8.329895 30.293251 -16.008911 43.048073c-15.357849 25.509613 -57.26599 63.772964 -68.71912 76.52756" fill-rule="evenodd"/><path fill="#0000ff" stroke="#0000ff" stroke-width="4.0" stroke-linecap="butt" d="m820.1075 107.738144l-2.5548096 -19.147682l-10.35083 16.310158z" fill-rule="evenodd"/><path fill="#000000" fill-opacity="0.0" d="m119.49106 82.87911c3.9046326 12.755035 8.069992 51.02056 23.427826 76.53019c15.357819 25.509613 57.26596 63.772964 68.71915 76.52756" fill-rule="evenodd"/><path stroke="#0000ff" stroke-width="4.0" stroke-linejoin="round" stroke-linecap="butt" d="m124.6448 106.31923l0.46705627 2.1701202c0.18502045 0.84895325 0.3746338 1.7076569 0.5691757 2.574913c0.3890686 1.73452 0.79785156 3.503296 1.2289963 5.2969666c3.44915 14.34948 8.329933 30.293251 16.008858 43.048073c15.357819 25.509613 57.265976 63.772964 68.71916 76.52756" fill-rule="evenodd"/><path fill="#0000ff" stroke="#0000ff" stroke-width="4.0" stroke-linecap="butt" d="m131.0976 104.90047l-10.350822 -16.310158l-2.5547714 19.14769z" fill-rule="evenodd"/><path fill="#000000" fill-opacity="0.0" d="m0 0l314.96063 0l0 42.015747l-314.96063 0z" fill-rule="evenodd"/></g></svg>