<svg version="1.1" viewBox="0.0 0.0 960.0 720.0" fill="none" stroke="none" stroke-linecap="square" stroke-miterlimit="10" xmlns:xlink="http://www.w3.org/1999/xlink" xmlns="http://www.w3.org/2000/svg"><clipPath id="p.0"><path d="m0 0l960.0 0l0 720.0l-960.0 0l0 -720.0z" clip-rule="nonzero"/></clipPath><g clip-path="url(#p.0)"><path fill="#000000" fill-opacity="0.0" d="m0 0l960.0 0l0 720.0l-960.0 0z" fill-rule="evenodd"/><path fill="#000000" fill-opacity="0.0" d="m480.0 677.8268l0 -635.65356" fill-rule="evenodd"/><path stroke="#000000" stroke-width="2.0" stroke-linejoin="round" stroke-linecap="butt" d="m480.0 665.8268l0 -611.65356" fill-rule="evenodd"/><path fill="#000000" stroke="#000000" stroke-width="2.0" stroke-linecap="butt" d="m476.69653 665.8268l3.3034668 9.076172l3.3034668 -9.076172z" fill-rule="evenodd"/><path fill="#000000" stroke="#000000" stroke-width="2.0" stroke-linecap="butt" d="m483.30347 54.17323l-3.3034668 -9.076195l-3.3034668 9.076195z" fill-rule="evenodd"/><path fill="#000000" fill-opacity="0.0" d="m39.559055 360.0l880.88184 0" fill-rule="evenodd"/><path stroke="#000000" stroke-width="2.0" stroke-linejoin="round" stroke-linecap="butt" d="m51.559055 360.0l856.88184 0" fill-rule="evenodd"/><path fill="#000000" stroke="#000000" stroke-width="2.0" stroke-linecap="butt" d="m51.559055 356.69653l-9.076195 3.3034668l9.076195 3.3034668z" fill-rule="evenodd"/><path fill="#000000" stroke="#000000" stroke-width="2.0" stroke-linecap="butt" d="m908.4409 363.30347l9.076233 -3.3034668l-9.076233 -3.3034668z" fill-rule="evenodd"/><path fill="#000000" fill-opacity="0.0" d="m207.75066 588.90967c22.646545 -71.32324 91.88759 -405.03278 135.87926 -427.93964c43.9917 -22.90683 86.94269 261.60498 128.07086 290.49866c41.128204 28.893707 89.283905 -104.38144 118.69815 -117.136475c29.414307 -12.755035 39.306213 38.00351 57.787415 40.606293c18.481201 2.6028137 31.234497 -57.78781 53.09973 -24.989502c21.865295 32.79834 65.0766 184.81628 78.09186 221.77954" fill-rule="evenodd"/><path stroke="#0000ff" stroke-width="3.0" stroke-linejoin="round" stroke-linecap="butt" d="m212.79268 571.6303l0.40107727 -1.4577026c0.22535706 -0.82336426 0.4532318 -1.6602783 0.683609 -2.510437c0.46073914 -1.7003784 0.9315033 -3.4538574 1.4120026 -5.2582397c0.9609833 -3.6088867 1.9608917 -7.4214478 2.9975433 -11.420288c4.146576 -15.995483 8.880859 -34.971252 14.062561 -55.80774c10.363388 -41.673035 22.516357 -90.78912 35.33638 -138.39218c25.640045 -95.20618 53.94821 -184.36028 75.94406 -195.81367c43.99167 -22.906815 86.94272 261.60498 128.07086 290.49872c41.128143 28.893707 89.283905 -104.38147 118.69815 -117.136505c29.414246 -12.755035 39.306274 38.00351 57.787415 40.606323c18.481201 2.6027832 31.234497 -57.78784 53.09973 -24.989502c10.932617 16.39914 27.201782 62.60321 42.364685 109.32791c7.581421 23.362335 14.8862915 46.854828 21.109314 66.816956c3.1115112 9.981079 5.9525146 19.079529 8.422363 26.83783l0.5449219 1.7067261" fill-rule="evenodd"/><path fill="#0000ff" stroke="#0000ff" stroke-width="3.0" stroke-linecap="butt" d="m208.03583 570.24225l0.9433136 14.457336l8.570343 -11.681274z" fill-rule="evenodd"/><path fill="#0000ff" stroke="#0000ff" stroke-width="3.0" stroke-linecap="butt" d="m769.0227 556.19403l8.978516 11.370544l0.4309082 -14.481628z" fill-rule="evenodd"/></g></svg>